HIERARCHY
ROOT Hips
{
  OFFSET 5.84602e-005 68.8428 3.50346
  CHANNELS 6 Xposition Yposition Zposition Zrotation Xrotation Yrotation
  JOINT Spine
  {
    OFFSET 0 8.597 -4.6522
    CHANNELS 3 Zrotation Xrotation Yrotation
    JOINT Spine1
    {
      OFFSET 0 7.8454 0.4098
      CHANNELS 3 Zrotation Xrotation Yrotation
      JOINT Spine2
      {
        OFFSET 0 9.7078 -2.1609
        CHANNELS 3 Zrotation Xrotation Yrotation
        JOINT Neck
        {
          OFFSET 0 21.8761 -0.4549
          CHANNELS 3 Zrotation Xrotation Yrotation
          JOINT Head
          {
            OFFSET 0 12.3537 3.3602
            CHANNELS 3 Zrotation Xrotation Yrotation
            End Site
            {
              OFFSET 0.0001 18.9506 0.5657
            }
          }
        }
        JOINT LeftShoulder
        {
          OFFSET 2.2086 21.1115 7.2329
          CHANNELS 3 Zrotation Xrotation Yrotation
          JOINT LeftArm
          {
            OFFSET 13.1193 3.0282 -4.8998
            CHANNELS 3 Zrotation Xrotation Yrotation
            JOINT LeftForeArm
            {
              OFFSET 27.4081 -0.0973053 -0.2375
              CHANNELS 3 Zrotation Xrotation Yrotation
              JOINT LeftHand
              {
                OFFSET 22.8641 0.0662994 -0.1369
                CHANNELS 3 Zrotation Xrotation Yrotation
                JOINT LeftHandIndex1
                {
                  OFFSET 8.8614 0.775009 2.4612
                  CHANNELS 3 Zrotation Xrotation Yrotation
                  JOINT LeftHandIndex2
                  {
                    OFFSET 3.3146 -0.808304 0.5841
                    CHANNELS 3 Zrotation Xrotation Yrotation
                    JOINT LeftHandIndex3
                    {
                      OFFSET 2.2628 -0.552002 0.3989
                      CHANNELS 3 Zrotation Xrotation Yrotation
                      End Site
                      {
                        OFFSET 1.6102 -0.4807 0.2612
                      }
                    }
                  }
                }
                JOINT LeftHandMiddle1
                {
                  OFFSET 8.9937 0.895004 0.2143
                  CHANNELS 3 Zrotation Xrotation Yrotation
                  JOINT LeftHandMiddle2
                  {
                    OFFSET 4.0984 0.0113983 -0.0242
                    CHANNELS 3 Zrotation Xrotation Yrotation
                    JOINT LeftHandMiddle3
                    {
                      OFFSET 2.2716 0.00689697 -0.0138001
                      CHANNELS 3 Zrotation Xrotation Yrotation
                      End Site
                      {
                        OFFSET 2.0404 -0.1441 0.0027
                      }
                    }
                  }
                }
                JOINT LeftHandRing1
                {
                  OFFSET 8.5234 0.597198 -2.0164
                  CHANNELS 3 Zrotation Xrotation Yrotation
                  JOINT LeftHandRing2
                  {
                    OFFSET 3.7188 -0.188293 -0.2328
                    CHANNELS 3 Zrotation Xrotation Yrotation
                    JOINT LeftHandRing3
                    {
                      OFFSET 2.1191 -0.106598 -0.1332
                      CHANNELS 3 Zrotation Xrotation Yrotation
                      End Site
                      {
                        OFFSET 1.8737 -0.2304 -0.0886
                      }
                    }
                  }
                }
                JOINT LeftHandPinky1
                {
                  OFFSET 7.9094 -0.601089 -3.4825
                  CHANNELS 3 Zrotation Xrotation Yrotation
                  JOINT LeftHandPinky2
                  {
                    OFFSET 2.2874 -0.477005 -0.6314
                    CHANNELS 3 Zrotation Xrotation Yrotation
                    JOINT LeftHandPinky3
                    {
                      OFFSET 1.6774 -0.349396 -0.4633
                      CHANNELS 3 Zrotation Xrotation Yrotation
                      End Site
                      {
                        OFFSET 1.4888 -0.4091 -0.3416
                      }
                    }
                  }
                }
                JOINT LeftHandThumb1
                {
                  OFFSET 1.833 -1.3875 1.3896
                  CHANNELS 3 Zrotation Xrotation Yrotation
                  JOINT LeftHandThumb2
                  {
                    OFFSET 3.4129 -1.121 2.5732
                    CHANNELS 3 Zrotation Xrotation Yrotation
                    JOINT LeftHandThumb3
                    {
                      OFFSET 2.2474 -0.804199 1.6192
                      CHANNELS 3 Zrotation Xrotation Yrotation
                      End Site
                      {
                        OFFSET 1.6527 -0.5689 1.1317
                      }
                    }
                  }
                }
              }
            }
          }
        }
        JOINT RightShoulder
        {
          OFFSET -2.2086 21.1115 7.2329
          CHANNELS 3 Zrotation Xrotation Yrotation
          JOINT RightArm
          {
            OFFSET -13.1216 3.0287 -4.9007
            CHANNELS 3 Zrotation Xrotation Yrotation
            JOINT RightForeArm
            {
              OFFSET -27.4081 -0.0973053 -0.2375
              CHANNELS 3 Zrotation Xrotation Yrotation
              JOINT RightHand
              {
                OFFSET -22.8641 0.0664063 -0.1369
                CHANNELS 3 Zrotation Xrotation Yrotation
                JOINT RightHandIndex1
                {
                  OFFSET -8.8614 0.774994 2.4612
                  CHANNELS 3 Zrotation Xrotation Yrotation
                  JOINT RightHandIndex2
                  {
                    OFFSET -3.3146 -0.808304 0.5841
                    CHANNELS 3 Zrotation Xrotation Yrotation
                    JOINT RightHandIndex3
                    {
                      OFFSET -2.2628 -0.552002 0.3989
                      CHANNELS 3 Zrotation Xrotation Yrotation
                      End Site
                      {
                        OFFSET -1.6102 -0.4807 0.2612
                      }
                    }
                  }
                }
                JOINT RightHandMiddle1
                {
                  OFFSET -8.9937 0.894989 0.2143
                  CHANNELS 3 Zrotation Xrotation Yrotation
                  JOINT RightHandMiddle2
                  {
                    OFFSET -4.0984 0.0113983 -0.0242
                    CHANNELS 3 Zrotation Xrotation Yrotation
                    JOINT RightHandMiddle3
                    {
                      OFFSET -2.2716 0.00691223 -0.0138001
                      CHANNELS 3 Zrotation Xrotation Yrotation
                      End Site
                      {
                        OFFSET -2.0404 -0.1441 0.0027
                      }
                    }
                  }
                }
                JOINT RightHandRing1
                {
                  OFFSET -8.5234 0.597198 -2.0164
                  CHANNELS 3 Zrotation Xrotation Yrotation
                  JOINT RightHandRing2
                  {
                    OFFSET -3.7188 -0.188309 -0.2328
                    CHANNELS 3 Zrotation Xrotation Yrotation
                    JOINT RightHandRing3
                    {
                      OFFSET -2.1191 -0.106598 -0.1332
                      CHANNELS 3 Zrotation Xrotation Yrotation
                      End Site
                      {
                        OFFSET -1.8737 -0.2304 -0.0886
                      }
                    }
                  }
                }
                JOINT RightHandPinky1
                {
                  OFFSET -7.9094 -0.601105 -3.4825
                  CHANNELS 3 Zrotation Xrotation Yrotation
                  JOINT RightHandPinky2
                  {
                    OFFSET -2.2874 -0.477005 -0.6314
                    CHANNELS 3 Zrotation Xrotation Yrotation
                    JOINT RightHandPinky3
                    {
                      OFFSET -1.6774 -0.349396 -0.4633
                      CHANNELS 3 Zrotation Xrotation Yrotation
                      End Site
                      {
                        OFFSET -1.4888 -0.4091 -0.3416
                      }
                    }
                  }
                }
                JOINT RightHandThumb1
                {
                  OFFSET -1.833 -1.38751 1.3896
                  CHANNELS 3 Zrotation Xrotation Yrotation
                  JOINT RightHandThumb2
                  {
                    OFFSET -3.41299 -1.12099 2.5732
                    CHANNELS 3 Zrotation Xrotation Yrotation
                    JOINT RightHandThumb3
                    {
                      OFFSET -2.24741 -0.804108 1.6192
                      CHANNELS 3 Zrotation Xrotation Yrotation
                      End Site
                      {
                        OFFSET -1.6527 -0.5689 1.1317
                      }
                    }
                  }
                }
              }
            }
          }
        }
      }
    }
  }
  JOINT RightUpLeg
  {
    OFFSET -9.1966 3.8861 -0.7581
    CHANNELS 3 Zrotation Xrotation Yrotation
    JOINT RightLeg
    {
      OFFSET -0.7359 -41.0265 0
      CHANNELS 3 Zrotation Xrotation Yrotation
      JOINT RightFoot
      {
        OFFSET 0 -40.2855 0
        CHANNELS 3 Zrotation Xrotation Yrotation
        JOINT RightToeBase
        {
          OFFSET 0 -5.6122 11.7359
          CHANNELS 3 Zrotation Xrotation Yrotation
          End Site
          {
            OFFSET 0 0 7.8731
          }
        }
      }
    }
  }
  JOINT LeftUpLeg
  {
    OFFSET 9.1965 3.8864 -0.7581
    CHANNELS 3 Zrotation Xrotation Yrotation
    JOINT LeftLeg
    {
      OFFSET 0.7359 -41.0268 0
      CHANNELS 3 Zrotation Xrotation Yrotation
      JOINT LeftFoot
      {
        OFFSET 0 -40.2855 0
        CHANNELS 3 Zrotation Xrotation Yrotation
        JOINT LeftToeBase
        {
          OFFSET 0 -5.6122 11.7359
          CHANNELS 3 Zrotation Xrotation Yrotation
          End Site
          {
            OFFSET 0 0 7.8731
          }
        }
      }
    }
  }
}
MOTION
Frames:	4
Frame Time:	0.0333333
0.000181756 5.34828 8.09017 -180 -88.2959 -180 -0.0296205 -1.04688 -0.149574 -0.0619904 -2.09368 -0.299764 -0.0619903 -2.09367 -0.299764 2.67975e-006 39.9983 -1.68473e-006 9.3146 -23.2804 9.56722 -19.4107 12.8899 1.03677 -60.0933 -8.05634 -32.2445 -11.9104 34.6443 0.363272 -39.46 -58.9076 11.8788 3.18055e-015 1.59028e-015 3.18055e-015 4.17869e-006 -1.21828e-007 -7.36574e-007 -6.36111e-015 -7.95139e-015 4.77083e-015 3.18055e-015 1.59028e-015 3.18055e-015 -0.0146013 -8.326e-005 -1.07385e-006 -3.18055e-015 -1.59028e-015 -0 3.18055e-015 1.59028e-015 3.18055e-015 -0.0187591 -0.00117731 6.20171e-005 -3.18055e-015 3.18055e-015 1.59028e-015 3.18055e-015 1.59028e-015 3.18055e-015 -0.0122572 -0.00324514 0.000675392 0 1.59028e-015 -0 3.18055e-015 1.59028e-015 3.18055e-015 4.17869e-006 -1.21828e-007 -7.36574e-007 -6.36111e-015 -7.95139e-015 4.77083e-015 20.8461 12.7158 -0.24292 59.1015 -8.61422 31.8335 11.3225 34.6082 -0.364232 39.4487 -58.2946 -12.6136 -2.46514e-006 1.09908e-006 -1.71368e-006 3.18055e-015 -3.18055e-015 -7.95139e-015 -2.46514e-006 1.09908e-006 -1.71368e-006 -2.46514e-006 1.09908e-006 -1.71368e-006 0.014974 -9.5779e-005 -7.5237e-006 -2.4653e-006 1.09886e-006 -1.71382e-006 -2.46514e-006 1.09908e-006 -1.71368e-006 0.0189981 -0.00119115 -6.11132e-005 -2.46536e-006 1.09881e-006 -1.71383e-006 -2.46514e-006 1.09908e-006 -1.71368e-006 0.0122775 -0.00325331 -0.000676471 -2.46533e-006 1.09892e-006 -1.71372e-006 -2.46514e-006 1.09908e-006 -1.71368e-006 3.18055e-015 -3.18055e-015 -7.95139e-015 -2.46514e-006 1.09908e-006 -1.71368e-006 -21.8968 -23.5469 -49.0111 -66.8437 52.6208 54.2795 4.82722 13.7892 -11.949 -3.14927e-006 -3.44301e-006 -1.9108e-006 21.8758 -23.5524 48.9906 66.7974 52.638 -54.2281 -4.83222 13.8012 11.9344 -4.48061e-006 2.54775e-006 -4.70135e-006 
0.000181637 5.27963 8.05573 -180 -87.7703 -180 -0.0304306 -0.881383 -0.149384 -0.0631709 -1.76267 -0.299289 -0.0631707 -1.76267 -0.299289 5.01969e-006 39.9975 -9.80492e-006 9.21746 -23.0471 9.46859 -19.7458 12.4197 0.611524 -59.7828 -8.25145 -32.1459 -11.5673 34.6351 0.363879 -39.8095 -59.0202 11.8019 -4.17941e-006 1.18311e-007 7.36262e-007 -4.17941e-006 1.18311e-007 7.36262e-007 -4.17941e-006 1.18311e-007 7.36262e-007 -4.17941e-006 1.18311e-007 7.36262e-007 -0.0145838 -8.59609e-005 -3.83866e-006 -4.17971e-006 1.18216e-007 7.3628e-007 -4.17941e-006 1.18311e-007 7.36262e-007 -0.0187581 -0.00117848 5.80166e-005 -4.17978e-006 1.18169e-007 7.36326e-007 -4.17941e-006 1.18311e-007 7.36262e-007 -0.0122799 -0.00323671 0.000675578 -4.17964e-006 1.18192e-007 7.36406e-007 -4.17941e-006 1.18311e-007 7.36262e-007 -4.17941e-006 1.18311e-007 7.36262e-007 -4.17941e-006 1.18311e-007 7.36262e-007 21.2636 12.2414 0.240908 58.7278 -8.84545 31.7063 10.943 34.5991 -0.36486 39.7909 -58.3681 -12.5957 4.17937e-006 9.99512e-008 -7.50274e-007 4.17937e-006 9.99512e-008 -7.50274e-007 4.17937e-006 9.99512e-008 -7.50274e-007 4.17937e-006 9.99512e-008 -7.50274e-007 0.0149983 -9.44455e-005 1.47984e-006 4.17967e-006 9.9851e-008 -7.50291e-007 4.17937e-006 9.99512e-008 -7.50274e-007 0.0190165 -0.00119517 -6.3754e-005 4.17974e-006 9.9805e-008 -7.50336e-007 4.17937e-006 9.99512e-008 -7.50274e-007 0.0122666 -0.00325124 -0.000677723 4.17959e-006 9.98304e-008 -7.50417e-007 4.17937e-006 9.99512e-008 -7.50274e-007 4.17937e-006 9.99512e-008 -7.50274e-007 4.17937e-006 9.99512e-008 -7.50274e-007 -21.8979 -23.1358 -48.9548 -66.8507 52.6223 54.2843 4.68634 13.8448 -11.863 -1.39232e-007 -1.41941e-006 3.74168e-006 21.8771 -23.141 48.9342 66.8041 52.6394 -54.2327 -4.69173 13.8567 11.8484 -2.25912e-006 1.31989e-006 -2.63817e-006 
0.000179807 5.21066 8.02072 -180 -87.2448 -180 -0.0312411 -0.715956 -0.149193 -0.0643542 -1.43182 -0.298812 -0.0643542 -1.43185 -0.298812 -5.85655e-006 39.998 1.76374e-005 9.12085 -22.8135 9.3705 -20.0838 11.9521 0.184414 -59.4719 -8.44603 -32.0462 -11.2242 34.6261 0.364463 -40.1605 -59.1324 11.7234 -3.18055e-015 1.59028e-015 3.18055e-015 -4.1802e-006 1.14639e-007 7.35996e-007 -2.4581e-006 -1.09342e-006 -1.7221e-006 -3.18055e-015 1.59028e-015 3.18055e-015 -0.0145936 -8.5666e-005 -4.01503e-007 -2.45825e-006 -1.0932e-006 -1.72224e-006 -3.18055e-015 1.59028e-015 3.18055e-015 -0.0187302 -0.00117746 5.92731e-005 -2.45831e-006 -1.09315e-006 -1.72225e-006 -3.18055e-015 1.59028e-015 3.18055e-015 -0.0122933 -0.00325038 0.000677987 -2.45828e-006 -1.09326e-006 -1.72214e-006 -3.18055e-015 1.59028e-015 3.18055e-015 -4.1802e-006 1.14639e-007 7.35996e-007 -2.4581e-006 -1.09342e-006 -1.7221e-006 21.6845 11.7707 0.727241 58.3534 -9.07583 31.5776 10.5634 34.5901 -0.36549 40.134 -58.4415 -12.5769 -4.18e-006 -9.8275e-008 7.49156e-007 4.41391e-032 -1.59028e-015 1.59028e-015 2.46458e-006 -1.10004e-006 1.71542e-006 -4.18e-006 -9.8275e-008 7.49156e-007 0.0150008 -8.72509e-005 -2.1367e-006 2.46473e-006 -1.09982e-006 1.71556e-006 -4.18e-006 -9.8275e-008 7.49156e-007 0.0189799 -0.00118489 -5.74312e-005 2.46479e-006 -1.09977e-006 1.71558e-006 -4.18e-006 -9.8275e-008 7.49156e-007 0.0122711 -0.00324654 -0.000674858 2.46476e-006 -1.09988e-006 1.71546e-006 -4.18e-006 -9.8275e-008 7.49156e-007 4.41391e-032 -1.59028e-015 1.59028e-015 2.46458e-006 -1.10004e-006 1.71542e-006 -21.8994 -22.7247 -48.8987 -66.8579 52.6237 54.2892 4.5454 13.9001 -11.7768 -8.90918e-007 -2.12306e-006 7.27844e-007 21.8787 -22.73 48.8779 66.8114 52.6409 -54.2376 -4.55111 13.912 11.7622 6.15579e-007 1.50708e-006 3.52185e-007 
0.000176822 5.14136 7.98512 -180 -86.7193 -180 -0.0320526 -0.550607 -0.149004 -0.0655418 -1.10116 -0.298336 -0.0655419 -1.10115 -0.298336 -5.20864e-005 39.9979 0.000108253 9.02478 -22.5796 9.27293 -20.4247 11.4873 -0.244581 -59.1605 -8.64007 -31.9454 -10.8811 34.6174 0.365043 -40.5129 -59.2444 11.6434 -3.53113e-031 -6.36111e-015 -3.18055e-015 -3.18055e-015 -3.18055e-015 -6.36111e-015 -3.18055e-015 -6.36111e-015 -4.77083e-015 -3.53113e-031 -6.36111e-015 -3.18055e-015 -0.0146324 -9.30409e-005 1.58988e-006 6.36111e-015 0 -4.77083e-015 -3.53113e-031 -6.36111e-015 -3.18055e-015 -0.018756 -0.00117511 5.89323e-005 -4.17582e-007 1.36102e-006 -9.57183e-007 -3.53113e-031 -6.36111e-015 -3.18055e-015 -0.012271 -0.00324212 0.00067942 6.36111e-015 1.59028e-015 1.59028e-015 -3.53113e-031 -6.36111e-015 -3.18055e-015 -3.18055e-015 -3.18055e-015 -6.36111e-015 -3.18055e-015 -6.36111e-015 -4.77083e-015 22.1085 11.3038 1.2161 57.9782 -9.30534 31.4472 10.1839 34.5815 -0.366055 40.4778 -58.5149 -12.5573 -4.92881e-006 2.2011e-006 -3.43259e-006 -3.18055e-015 0 3.18055e-015 -2.4644e-006 1.10055e-006 -1.71629e-006 -4.92881e-006 2.2011e-006 -3.43259e-006 0.0150005 -8.50669e-005 2.93552e-006 -2.46456e-006 1.10032e-006 -1.71644e-006 -4.92881e-006 2.2011e-006 -3.43259e-006 0.0190108 -0.00118945 -6.32892e-005 -2.46462e-006 1.10027e-006 -1.71645e-006 -4.92881e-006 2.2011e-006 -3.43259e-006 0.0122796 -0.00324436 -0.00067687 -2.46459e-006 1.10038e-006 -1.71633e-006 -4.92881e-006 2.2011e-006 -3.43259e-006 -3.18055e-015 0 3.18055e-015 -2.4644e-006 1.10055e-006 -1.71629e-006 -21.9014 -22.3136 -48.8427 -66.865 52.6252 54.2941 4.40435 13.9552 -11.6905 4.34491e-006 3.38034e-007 2.03994e-006 21.8809 -22.319 48.8217 66.8186 52.6424 -54.2427 -4.41043 13.967 11.6759 9.54166e-015 3.18055e-015 6.36111e-015 
